{"title":"Deathproof (2007)","uid":8354677,"size":359043062,"categoryP":"video","categoryS":"movies","magnet":"?xt=urn:btih:342bf318a89bdf82361c6d0a21e0a17a0d9c1e92&amp;dn=Deathproof+%282007%29&amp;tr=udp%3A%2F%2Ftracker.openbittorrent.com%3A80&amp;tr=udp%3A%2F%2Fopen.demonii.com%3A1337&amp;tr=udp%3A%2F%2Ftracker.coppersurfer.tk%3A6969&amp;tr=udp%3A%2F%2Fexodus.desync.com%3A6969","seeders":1,"leechers":1,"uploader":"WICKED-MIND","files":1,"time":1365455230,"description":"General\nComplete name: Deathproof.divx\nFormat: AVI\nFormat/Info: Audio Video Interleave\nFile size: 342 MiB\nDuration: 1h 45mn\nOverall bit rate: 452 Kbps\n\nVideo\nID: 0\nFormat: MPEG-4 Visual\nFormat settings, BVOP: 2\nFormat settings, QPel: No\nFormat settings, GMC: No warppoints\nFormat settings, Matrix: Default (H.263)\nMuxing mode: Packed bitstream\nCodec ID: DX50\nCodec ID/Hint: DivX 5\nDuration: 1h 45mn\nBit rate: 250 Kbps\nWidth: 384 pixels\nHeight: 288 pixels\nDisplay aspect ratio: 4:3\nFrame rate: 25.000 fps\nColor space: YUV\nChroma subsampling: 4:2:0\nBit depth: 8 bits\nScan type: Progressive\nCompression mode: Lossy\nBits/(Pixel*Frame): 0.091\nStream size: 190 MiB (55%)\nTitle: Video\nWriting library: DivX 2682\n\nAudio\nID: 1\nFormat: MPEG Audio\nFormat version: Version 1\nFormat profile: Layer 3\nMode: Joint stereo\nMode extension: MS Stereo\nCodec ID: 55\nCodec ID/Hint: MP3\nDuration: 1h 45mn\nBit rate mode: Constant\nBit rate: 192 Kbps\nChannel(s): 2 channels\nSampling rate: 48.0 KHz\nCompression mode: Lossy\nStream size: 145 MiB (42%)\nAlignment: Split accross interleaves\nInterleave, duration: 40 ms (1.00 video frame)\nInterleave, preload duration: 500 ms\nTitle: Audio - en-US01 &lt;a href=&quot;\nhttp://www.imdb.com/title/tt1028528/&quot; rel=&quot;nofollow&quot; target=&quot;_NEW&quot;&gt;\nhttp://www.imdb.com/title/tt1028528/&lt;/a&gt;\n\nStoryline\n\nIn Austin, Texas, girlfriends Julia Lucai, Arlene, Shanna and Lanna Frank meet in a bar to drink, smoke and make out with their boyfriends before traveling alone to Lake LBJ to spend the weekend together. They meet the former Hollywood stunt man, Mike, who takes Pam out in his &quot;death-proof&quot; stunt car. Pam soon discovers Mike's secret. Fourteen months later, Mike turns up in Lebanon, Tennessee. Abernathy &quot;Abbie&quot; works in the make-up department on a film set. Zo Bell, Kim and Lee are all chased by him but the girls are tough and decide to pay-back the attack\n\nDirector:\nQuentin Tarantino\nWriter:\nQuentin Tarantino\nStars:\nKurt Russell, Zoe Bell, Rosario Dawson ","torrent":{"xt":"urn:btih:342bf318a89bdf82361c6d0a21e0a17a0d9c1e92","amp;dn":"Deathproof+%282007%29","amp;tr":["udp%3A%2F%2Ftracker.openbittorrent.com%3A80","udp%3A%2F%2Fopen.demonii.com%3A1337","udp%3A%2F%2Ftracker.coppersurfer.tk%3A6969","udp%3A%2F%2Fexodus.desync.com%3A6969"],"infoHash":"342bf318a89bdf82361c6d0a21e0a17a0d9c1e92","infoHashBuffer":{"type":"Buffer","data":[52,43,243,24,168,155,223,130,54,28,109,10,33,224,161,122,13,156,30,146]},"announce":[],"urlList":[]}}